<svg fill="white" xmlns="http://www.w3.org/2000/svg" width="24" height="24" viewBox="0 0 24 24">
			<!--?lit$104179900$--><path d="M12.5 8.5c0-.28-.22-.5-.5-.5s-.5.22-.5.5v5.51h1zm-.51 7.51c-.41 0-.75.34-.75.75s.34.75.75.75.75-.34.75-.75-.34-.75-.75-.75"></path><path d="M22.74 17.97h-.01L13.76 2.03C13.4 1.38 12.74 1 12 1s-1.4.39-1.76 1.03L1.26 17.97c-.36.64-.35 1.4.02 2.03s1.02 1 1.74 1h17.95c.72 0 1.38-.38 1.74-1 .37-.63.38-1.39.02-2.03Zm-.88 1.53c-.19.32-.52.51-.88.51H3.02c-.37 0-.69-.19-.88-.51a1.02 1.02 0 0 1 0-1.04L11.1 2.52c.18-.33.52-.52.89-.52s.7.2.89.52l8.97 15.94c.18.33.18.71 0 1.04Z"></path>
		</svg>