<svg fill="currentColor" xmlns="http://www.w3.org/2000/svg" width="24" height="24" viewBox="0 0 24 24">
			<!--?lit$049961716$--><circle cx="9" cy="9" r="1"></circle><circle cx="15" cy="9" r="1"></circle><path d="M12 13c-2.11 0-3.96 1.09-5.03 2.73-.15.23-.09.54.15.69.23.15.54.09.69-.15C8.7 14.9 10.25 14 12 14s3.3.9 4.19 2.27c.15.23.46.3.69.15a.5.5 0 0 0 .15-.69A6 6 0 0 0 12 13"></path><path d="M12 2C6.48 2 2 6.48 2 12s4.48 10 10 10 10-4.48 10-10S17.52 2 12 2m0 19a9 9 0 1 1 .001-18.001A9 9 0 0 1 12 21"></path>
		</svg>