<svg fill="currentColor" xmlns="http://www.w3.org/2000/svg" width="24" height="24" viewBox="0 0 24 24">
			<!--?lit$049961716$--><circle cx="9" cy="9" r="1"></circle><circle cx="15" cy="9" r="1"></circle><path d="M16.88 14.58a.49.49 0 0 0-.69.15C15.3 16.1 13.75 17 12 17s-3.3-.9-4.19-2.27a.5.5 0 0 0-.69-.15.5.5 0 0 0-.15.69 5.997 5.997 0 0 0 10.06 0c.15-.23.09-.54-.15-.69"></path><path d="M12 2C6.48 2 2 6.48 2 12s4.48 10 10 10 10-4.48 10-10S17.52 2 12 2m0 19a9 9 0 1 1 .001-18.001A9 9 0 0 1 12 21"></path>
		</svg>