<svg fill="currentColor" xmlns="http://www.w3.org/2000/svg" width="24" height="24" viewBox="0 0 24 24">
			<!--?lit$498696654$--><path d="M10.49 18c.28 0 .5-.22.5-.5l.02-8c0-.28-.22-.5-.5-.5s-.5.22-.5.5l-.02 8c0 .28.22.5.5.5m3 0c.28 0 .5-.22.5-.5l.02-8c0-.28-.22-.5-.5-.5s-.5.22-.5.5l-.02 8c0 .28.22.5.5.5"></path><path d="M19.5 6H15V3.5c0-.28-.22-.5-.5-.5h-5c-.28 0-.5.22-.5.5V6H4.5c-.28 0-.5.22-.5.5s.22.5.5.5H6v12.5c0 .83.67 1.5 1.5 1.5h9c.83 0 1.5-.67 1.5-1.5V7h1.5c.28 0 .5-.22.5-.5s-.22-.5-.5-.5M10 4h4v2h-4zm7 15.5c0 .28-.22.5-.5.5h-9c-.28 0-.5-.22-.5-.5V7h10z"></path>
		</svg>